<svg width="20" height="20" viewBox="0 0 20 20" fill="none" xmlns="http://www.w3.org/2000/svg">
<path d="M16 19.3333H19.3333V17.3333C19.3333 15.4924 17.8409 14 16 14M11.3333 4.66405C11.3333 6.87194 9.54267 8.66144 7.33333 8.66144C5.124 8.66144 3.33333 6.87194 3.33333 4.66405C3.33333 2.45616 5.124 0.666656 7.33333 0.666656C9.54267 0.666656 11.3333 2.45616 11.3333 4.66405ZM14 19.3212H0.666668C0.666668 18.3744 0.666668 17.4738 0.666668 16.6582C0.666668 14.449 2.45753 12.6588 4.66667 12.6588H10C12.2091 12.6588 14 14.449 14 16.6582C14 17.4738 14 18.3744 14 19.3212ZM15.3333 11.3333C13.8606 11.3333 12.6667 10.1394 12.6667 8.66666C12.6667 7.1939 13.8606 5.99999 15.3333 5.99999C16.8061 5.99999 18 7.1939 18 8.66666C18 10.1394 16.8061 11.3333 15.3333 11.3333Z" stroke="#848484"/>
</svg>
