<svg width="20" height="20" viewBox="0 0 20 20" fill="none" xmlns="http://www.w3.org/2000/svg">
<path d="M7.33333 0.666672H2C1.26362 0.666672 0.666668 1.26363 0.666668 2.00001V7.33334C0.666668 8.06972 1.26362 8.66667 2 8.66667H7.33333C8.06971 8.66667 8.66667 8.06972 8.66667 7.33334V2.00001C8.66667 1.26363 8.06971 0.666672 7.33333 0.666672Z" stroke="black" stroke-width="1.2"/>
<path d="M18 0.666672H12.6667C11.9303 0.666672 11.3333 1.26363 11.3333 2.00001V7.33334C11.3333 8.06972 11.9303 8.66667 12.6667 8.66667H18C18.7364 8.66667 19.3333 8.06972 19.3333 7.33334V2.00001C19.3333 1.26363 18.7364 0.666672 18 0.666672Z" stroke="black" stroke-width="1.2"/>
<path d="M18 11.3333H12.6667C11.9303 11.3333 11.3333 11.9303 11.3333 12.6667V18C11.3333 18.7364 11.9303 19.3333 12.6667 19.3333H18C18.7364 19.3333 19.3333 18.7364 19.3333 18V12.6667C19.3333 11.9303 18.7364 11.3333 18 11.3333Z" stroke="black" stroke-width="1.2"/>
<path d="M7.33333 11.3333H2C1.26362 11.3333 0.666668 11.9303 0.666668 12.6667V18C0.666668 18.7364 1.26362 19.3333 2 19.3333H7.33333C8.06971 19.3333 8.66667 18.7364 8.66667 18V12.6667C8.66667 11.9303 8.06971 11.3333 7.33333 11.3333Z" stroke="black" stroke-width="1.2"/>
</svg>
