<svg width="20" height="20" viewBox="0 0 20 20" fill="none" xmlns="http://www.w3.org/2000/svg">
<path d="M7.33333 0.666626H2C1.26362 0.666626 0.666668 1.26358 0.666668 1.99996V7.33329C0.666668 8.06967 1.26362 8.66663 2 8.66663H7.33333C8.06971 8.66663 8.66667 8.06967 8.66667 7.33329V1.99996C8.66667 1.26358 8.06971 0.666626 7.33333 0.666626Z" stroke="#848484"/>
<path d="M18 0.666626H12.6667C11.9303 0.666626 11.3333 1.26358 11.3333 1.99996V7.33329C11.3333 8.06967 11.9303 8.66663 12.6667 8.66663H18C18.7364 8.66663 19.3333 8.06967 19.3333 7.33329V1.99996C19.3333 1.26358 18.7364 0.666626 18 0.666626Z" stroke="#848484"/>
<path d="M18 11.3333H12.6667C11.9303 11.3333 11.3333 11.9302 11.3333 12.6666V18C11.3333 18.7363 11.9303 19.3333 12.6667 19.3333H18C18.7364 19.3333 19.3333 18.7363 19.3333 18V12.6666C19.3333 11.9302 18.7364 11.3333 18 11.3333Z" stroke="#848484"/>
<path d="M7.33333 11.3333H2C1.26362 11.3333 0.666668 11.9302 0.666668 12.6666V18C0.666668 18.7363 1.26362 19.3333 2 19.3333H7.33333C8.06971 19.3333 8.66667 18.7363 8.66667 18V12.6666C8.66667 11.9302 8.06971 11.3333 7.33333 11.3333Z" stroke="#848484"/>
</svg>
