<svg width="20" height="20" viewBox="0 0 20 20" fill="none" xmlns="http://www.w3.org/2000/svg">
<path d="M0.666668 0.666672L1.46667 3.33334M1.46667 3.33334L4.66667 14H19.3333V6C19.3333 4.52725 18.1394 3.33334 16.6667 3.33334H1.46667ZM16.6667 19.3333C15.9303 19.3333 15.3333 18.7364 15.3333 18C15.3333 17.2636 15.9303 16.6667 16.6667 16.6667C17.403 16.6667 18 17.2636 18 18C18 18.7364 17.403 19.3333 16.6667 19.3333ZM6 18C6 17.2636 6.59695 16.6667 7.33333 16.6667C8.06971 16.6667 8.66667 17.2636 8.66667 18C8.66667 18.7364 8.06971 19.3333 7.33333 19.3333C6.59695 19.3333 6 18.7364 6 18Z" stroke="black" stroke-width="1.2"/>
</svg>
