<svg width="20" height="20" viewBox="0 0 20 20" fill="none" xmlns="http://www.w3.org/2000/svg">
<path d="M0.666668 19.3333H0.166668V19.8333H0.666668V19.3333ZM2.83333 15.3333V15.8333H3.83333V15.3333H2.83333ZM19.8333 3.33333V2.83333H18.8333V3.33333H19.8333ZM0.166668 0V19.3333H1.16667V0H0.166668ZM0.666668 19.8333H20V18.8333H0.666668V19.8333ZM3.83333 15.3333C3.83333 13.3789 4.16045 11.4534 4.79024 10.0364C5.42757 8.60241 6.29814 7.83333 7.33333 7.83333V6.83333C5.70187 6.83333 4.57243 8.06425 3.87643 9.63026C3.17289 11.2132 2.83333 13.2877 2.83333 15.3333H3.83333ZM7.33333 7.83333C7.82076 7.83333 8.28775 8.07427 8.78586 8.53407C9.28748 8.9971 9.75953 9.62381 10.2667 10.3C10.7595 10.9571 11.2875 11.6638 11.8692 12.2007C12.4544 12.7409 13.1541 13.1667 14 13.1667V12.1667C13.5126 12.1667 13.0456 11.9257 12.5475 11.4659C12.0459 11.0029 11.5738 10.3762 11.0667 9.7C10.5738 9.04286 10.0459 8.33623 9.46414 7.79927C8.87892 7.25906 8.17924 6.83333 7.33333 6.83333V7.83333ZM14 13.1667C15.5565 13.1667 17.0292 12.1956 18.0894 10.517C19.1519 8.83469 19.8333 6.40243 19.8333 3.33333H18.8333C18.8333 6.26424 18.1814 8.49864 17.2439 9.983C16.3041 11.4711 15.1102 12.1667 14 12.1667V13.1667Z" fill="#848484"/>
</svg>
